<?xml version="1.0" standalone="no"?>
<!DOCTYPE svg PUBLIC "-//W3C//DTD SVG 20010904//EN"
 "http://www.w3.org/TR/2001/REC-SVG-20010904/DTD/svg10.dtd">
<svg version="1.0" xmlns="http://www.w3.org/2000/svg" viewBox="0 0 276.000000 86.000000"
 preserveAspectRatio="xMidYMid meet">

<g transform="translate(0.000000,86.000000) scale(0.100000,-0.100000)"
fill="#e50914" stroke="none">
<path d="M174 744 c-16 -8 -39 -29 -50 -47 -17 -29 -19 -52 -19 -252 0 -199 2
-223 19 -252 23 -38 54 -53 106 -53 54 0 101 25 130 68 23 32 25 47 28 164 l4
129 -69 -3 -68 -3 -3 -42 c-3 -40 -1 -43 22 -43 25 0 26 -2 26 -59 0 -84 -12
-111 -50 -111 -44 0 -50 26 -50 215 0 189 6 215 50 215 34 0 50 -26 50 -81 0
-28 2 -29 45 -29 l45 0 0 45 c0 97 -53 155 -140 155 -25 0 -59 -7 -76 -16z"/>
<path d="M516 733 c-7 -23 -96 -557 -93 -559 1 -1 22 1 47 5 l45 6 7 48 c4 27
8 50 10 52 2 1 26 6 55 10 l52 7 6 -39 c11 -62 12 -63 59 -63 25 0 47 3 49 7
3 6 -78 480 -92 541 -1 1 -32 2 -70 2 -58 0 -71 -3 -75 -17z m95 -355 c-9 -4
-29 -7 -44 -7 -22 -1 -27 3 -24 17 3 9 13 71 23 137 l19 120 21 -130 c18 -117
19 -131 5 -137z"/>
<path d="M800 480 l0 -270 40 0 40 0 2 183 3 182 29 -165 c16 -91 31 -171 34
-178 3 -9 20 -12 50 -10 l46 3 27 160 27 160 1 -162 1 -163 50 0 50 0 0 265 0
265 -69 0 -69 0 -16 -87 c-8 -49 -20 -119 -26 -158 -6 -38 -14 -77 -17 -85 -3
-8 -18 53 -34 135 -16 83 -31 160 -34 173 -5 20 -11 22 -70 22 l-65 0 0 -270z"/>
<path d="M1262 490 l3 -261 128 -2 127 -2 0 43 0 42 -80 0 -80 0 0 75 0 75 65
0 65 0 0 40 0 40 -65 0 -65 0 0 70 0 70 80 0 80 0 0 35 0 35 -130 0 -130 0 2
-260z"/>
<path d="M1580 485 l0 -265 50 0 50 0 0 115 0 115 60 0 60 0 0 34 c0 37 -15
46 -82 46 l-38 0 0 70 0 70 75 0 75 0 0 40 0 40 -125 0 -125 0 0 -265z"/>
<path d="M1870 481 l0 -269 113 -7 c61 -3 120 -9 130 -11 14 -5 17 2 17 39 l0
44 -46 7 c-26 3 -62 6 -80 6 l-34 0 0 230 0 230 -50 0 -50 0 0 -269z"/>
<path d="M2170 471 l0 -278 41 -7 c23 -4 43 -5 46 -3 2 3 5 131 6 286 l2 281
-47 0 -48 0 0 -279z"/>
<path d="M2320 742 c0 -5 20 -64 45 -132 25 -68 45 -129 45 -136 0 -6 -22 -74
-50 -150 -28 -78 -46 -142 -41 -147 4 -4 25 -7 46 -5 l38 3 37 110 37 110 11
-35 c6 -19 23 -75 37 -123 15 -49 32 -90 38 -92 40 -12 87 -13 87 -1 0 7 -22
82 -50 167 l-50 155 50 142 50 142 -50 0 c-28 0 -50 -5 -50 -10 0 -6 -14 -52
-32 -102 l-32 -92 -34 102 -34 102 -49 0 c-27 0 -49 -4 -49 -8z"/>
</g>
</svg>
