<?xml version="1.0" standalone="no"?>
<!DOCTYPE svg PUBLIC "-//W3C//DTD SVG 20010904//EN"
 "http://www.w3.org/TR/2001/REC-SVG-20010904/DTD/svg10.dtd">
<svg version="1.0" xmlns="http://www.w3.org/2000/svg"
 viewBox="0 0 371.000000 86.000000"
 preserveAspectRatio="xMidYMid meet">

<g transform="translate(0.000000,86.000000) scale(0.100000,-0.100000)"
fill="#e50914" stroke="none">
<path d="M910 742 c-64 -31 -71 -61 -68 -277 3 -206 9 -228 64 -253 40 -19
125 -15 161 8 57 35 63 58 63 265 0 209 -6 231 -64 259 -44 21 -112 20 -156
-2z m108 -74 c17 -17 17 -359 0 -376 -18 -18 -56 -14 -68 7 -13 26 -13 336 0
362 12 21 50 25 68 7z"/>
<path d="M200 743 c0 -5 -21 -142 -46 -306 -26 -164 -45 -300 -42 -303 3 -2
23 -2 46 2 40 6 40 6 49 63 l8 56 56 3 57 3 7 -51 7 -50 49 0 c32 0 49 4 49
13 0 6 -21 139 -46 295 l-47 282 -73 0 c-41 0 -74 -3 -74 -7z m89 -230 c7 -49
15 -105 18 -125 5 -36 4 -37 -31 -44 -20 -3 -39 -4 -42 -1 -8 7 28 257 37 257
3 0 11 -39 18 -87z"/>
<path d="M480 460 l0 -290 23 0 c12 0 32 3 44 6 22 6 23 9 25 203 l3 196 54
-193 55 -193 50 3 51 3 3 278 2 277 -45 0 -44 0 -3 -157 -3 -158 -45 157 -45
158 -62 0 -63 0 0 -290z"/>
<path d="M1162 713 c3 -38 3 -38 51 -41 l47 -3 0 -225 0 -224 50 0 50 0 0 224
0 225 48 3 c47 3 47 3 50 41 l3 37 -151 0 -151 0 3 -37z"/>
<path d="M1500 490 l0 -260 50 0 50 0 0 110 0 110 50 0 50 0 0 -110 0 -110 50
0 50 0 0 260 0 260 -50 0 -50 0 0 -110 0 -110 -50 0 -50 0 0 110 0 110 -50 0
-50 0 0 -260z"/>
<path d="M1860 490 l0 -260 136 0 135 0 -3 37 -3 38 -82 3 -83 3 0 74 0 75 65
0 65 0 0 40 0 40 -65 0 -65 0 0 70 0 70 85 0 85 0 0 35 0 35 -135 0 -135 0 0
-260z"/>
<path d="M2180 490 l0 -260 50 0 50 0 0 105 0 105 29 0 c44 0 55 -23 61 -124
l5 -91 50 -3 50 -3 -6 103 c-6 106 -16 141 -45 152 -16 6 -15 8 4 22 39 27 54
126 28 189 -22 51 -58 65 -176 65 l-100 0 0 -260z m180 161 c15 -30 12 -97 -6
-115 -8 -9 -29 -16 -45 -16 l-29 0 0 75 0 75 35 0 c24 0 37 -6 45 -19z"/>
<path d="M2528 486 l-3 -264 35 -6 c63 -10 60 -15 60 109 l0 115 66 0 65 0 -3
38 -3 37 -62 3 -63 3 0 74 0 75 80 0 80 0 0 40 0 40 -125 0 -124 0 -3 -264z"/>
<path d="M2820 476 l0 -274 98 -7 c53 -3 111 -7 127 -8 29 -2 30 0 30 38 l0
40 -77 9 -78 9 0 234 0 233 -50 0 -50 0 0 -274z"/>
<path d="M3110 465 c0 -272 1 -285 19 -285 10 0 33 -3 50 -6 l31 -6 0 291 0
291 -50 0 -50 0 0 -285z"/>
<path d="M3311 609 l50 -142 -52 -145 c-56 -157 -56 -162 8 -162 31 0 32 1 69
112 20 62 40 106 43 98 2 -8 19 -62 37 -120 l32 -105 47 -8 c26 -4 49 -6 52
-3 2 2 -19 77 -47 165 l-51 162 45 137 c25 75 46 140 46 145 0 4 -19 7 -43 7
l-43 0 -35 -107 -36 -108 -33 108 -33 107 -53 0 -52 0 49 -141z"/>
</g>
</svg>
