<svg id="svg" xmlns="http://www.w3.org/2000/svg" xmlns:xlink="http://www.w3.org/1999/xlink" viewBox="0, 0, 400,400" version="1.1"><g id="svgg"><path id="path0" d="M210.352 1.295 C 207.666 1.931,205.469 2.779,205.469 3.179 C 205.469 3.579,205.048 3.906,204.534 3.906 C 201.692 3.906,190.041 14.370,188.222 18.555 C 187.615 19.951,186.899 21.094,186.630 21.094 C 186.361 21.094,185.698 22.676,185.156 24.609 C 184.615 26.543,183.866 28.125,183.492 28.125 C 183.118 28.125,182.813 28.672,182.813 29.340 C 182.813 30.008,182.101 32.117,181.230 34.027 C 180.360 35.937,179.437 38.555,179.180 39.844 C 178.922 41.133,178.459 42.187,178.152 42.187 C 177.845 42.188,177.129 44.121,176.563 46.484 C 175.996 48.848,175.264 50.781,174.937 50.781 C 174.610 50.781,174.099 51.924,173.802 53.320 C 173.279 55.772,171.826 59.391,168.683 66.067 C 167.860 67.814,167.188 69.835,167.188 70.559 C 167.188 71.283,166.878 71.875,166.499 71.875 C 166.120 71.875,165.391 73.540,164.879 75.576 C 164.366 77.611,163.695 79.457,163.388 79.677 C 162.654 80.204,158.594 89.393,158.594 90.527 C 158.594 91.011,158.298 91.406,157.938 91.406 C 157.577 91.406,156.817 92.812,156.250 94.531 C 155.683 96.250,154.961 97.656,154.647 97.656 C 154.333 97.656,153.861 98.511,153.599 99.555 C 153.337 100.599,152.684 101.933,152.147 102.520 C 151.611 103.107,150.619 104.626,149.943 105.895 C 148.335 108.918,146.634 111.827,145.878 112.851 C 145.544 113.302,144.151 115.430,142.782 117.578 C 141.412 119.727,140.085 121.660,139.831 121.875 C 139.578 122.090,138.334 123.652,137.068 125.347 C 134.011 129.438,124.987 138.180,123.252 138.731 C 122.495 138.971,121.875 139.514,121.875 139.937 C 121.875 140.360,120.820 141.074,119.531 141.523 C 118.242 141.973,117.188 142.612,117.188 142.944 C 117.188 143.275,115.518 143.999,113.477 144.551 C 111.436 145.103,109.398 145.836,108.948 146.179 C 108.499 146.522,88.108 146.906,63.636 147.034 L 19.141 147.266 15.271 149.219 C 11.460 151.142,3.906 157.968,3.906 159.489 C 3.906 159.917,3.404 160.770,2.791 161.383 C 0.797 163.377,0.702 169.335,0.938 276.953 L 1.172 383.203 3.054 386.231 C 5.309 389.858,11.237 396.094,12.430 396.094 C 12.898 396.094,13.281 396.386,13.281 396.744 C 13.281 399.577,14.244 399.595,175.391 399.713 C 350.776 399.842,346.608 399.978,352.985 393.945 C 353.553 393.408,354.322 392.969,354.694 392.969 C 355.699 392.969,363.221 385.013,363.729 383.413 C 363.970 382.653,364.468 382.031,364.836 382.031 C 365.203 382.031,365.928 380.713,366.447 379.102 C 366.966 377.490,367.693 375.789,368.061 375.322 C 368.430 374.854,369.119 371.690,369.592 368.291 C 370.065 364.891,370.730 361.568,371.068 360.906 C 371.407 360.244,371.941 357.080,372.257 353.875 C 372.572 350.669,373.099 347.695,373.427 347.266 C 373.756 346.836,374.477 342.354,375.030 337.305 C 375.583 332.256,376.281 328.125,376.582 328.125 C 376.883 328.125,377.577 323.730,378.125 318.359 C 378.673 312.988,379.367 308.594,379.668 308.594 C 379.969 308.594,380.667 304.463,381.220 299.414 C 381.773 294.365,382.494 289.883,382.823 289.453 C 383.151 289.023,383.674 286.035,383.984 282.813 C 384.295 279.590,384.822 276.602,385.155 276.172 C 385.489 275.742,386.203 271.523,386.741 266.797 C 387.280 262.070,387.976 257.852,388.287 257.422 C 388.599 256.992,389.299 252.598,389.844 247.656 C 390.388 242.715,391.091 238.320,391.406 237.891 C 391.721 237.461,392.424 233.066,392.969 228.125 C 393.513 223.184,394.224 218.789,394.549 218.359 C 394.873 217.930,395.393 214.941,395.703 211.719 C 396.013 208.496,396.557 205.499,396.912 205.058 C 399.498 201.844,399.466 172.088,396.876 171.224 C 396.446 171.081,396.094 170.333,396.094 169.562 C 396.094 168.791,395.580 167.734,394.952 167.213 C 394.324 166.692,393.575 165.506,393.287 164.578 C 392.619 162.427,384.719 154.655,381.641 153.121 C 380.352 152.479,378.832 151.514,378.265 150.977 C 377.697 150.439,376.624 150.000,375.882 150.000 C 375.139 150.000,374.164 149.632,373.714 149.183 C 371.909 147.378,356.331 146.902,298.633 146.889 C 258.929 146.880,238.281 146.608,238.281 146.094 C 238.281 145.664,237.754 145.313,237.109 145.313 C 236.465 145.313,235.938 144.961,235.938 144.531 C 235.938 144.102,236.289 143.750,236.719 143.750 C 237.148 143.750,237.500 143.349,237.500 142.859 C 237.500 142.369,238.241 140.347,239.147 138.367 C 242.487 131.062,242.907 130.007,243.846 126.563 C 244.373 124.629,245.056 122.695,245.362 122.266 C 245.669 121.836,246.366 119.463,246.912 116.992 C 247.458 114.521,248.161 112.500,248.473 112.500 C 248.786 112.500,249.290 110.830,249.594 108.789 C 249.898 106.748,250.425 104.727,250.765 104.297 C 251.105 103.867,251.796 100.879,252.300 97.656 C 252.803 94.434,253.530 91.094,253.913 90.234 C 254.763 88.332,256.250 78.458,256.250 74.720 C 256.250 73.227,256.689 71.859,257.227 71.680 C 258.523 71.247,258.646 30.504,257.356 28.832 C 256.890 28.228,256.073 25.713,255.542 23.242 C 255.010 20.771,254.249 18.750,253.850 18.750 C 253.451 18.750,253.123 18.311,253.121 17.773 C 253.115 16.264,248.642 11.773,240.956 5.559 C 240.493 5.185,239.279 4.614,238.258 4.289 C 237.237 3.965,235.958 3.258,235.418 2.717 C 232.855 0.154,218.583 -0.655,210.352 1.295 M88.281 273.438 L 88.281 372.656 57.813 372.656 L 27.344 372.656 27.344 273.438 L 27.344 174.219 57.813 174.219 L 88.281 174.219 88.281 273.438 " stroke="none" fill="#000000" fill-rule="evenodd"></path></g></svg>