<svg id="svg" xmlns="http://www.w3.org/2000/svg" xmlns:xlink="http://www.w3.org/1999/xlink" viewBox="0, 0, 400,400" version="1.1"><g id="svgg"><path id="path0" d="M210.352 1.295 C 207.666 1.931,205.469 2.779,205.469 3.179 C 205.469 3.579,205.048 3.906,204.534 3.906 C 201.692 3.906,190.041 14.370,188.222 18.555 C 187.615 19.951,186.899 21.094,186.630 21.094 C 186.361 21.094,185.698 22.676,185.156 24.609 C 184.615 26.543,183.866 28.125,183.492 28.125 C 183.118 28.125,182.813 28.672,182.813 29.340 C 182.813 30.008,182.101 32.117,181.230 34.027 C 180.360 35.937,179.437 38.555,179.180 39.844 C 178.922 41.133,178.459 42.187,178.152 42.187 C 177.845 42.188,177.129 44.121,176.563 46.484 C 175.996 48.848,175.264 50.781,174.937 50.781 C 174.610 50.781,174.099 51.924,173.802 53.320 C 173.279 55.772,171.826 59.391,168.683 66.067 C 167.860 67.814,167.188 69.835,167.188 70.559 C 167.188 71.283,166.878 71.875,166.499 71.875 C 166.120 71.875,165.391 73.540,164.879 75.576 C 164.366 77.611,163.695 79.457,163.388 79.677 C 162.654 80.204,158.594 89.393,158.594 90.527 C 158.594 91.011,158.298 91.406,157.938 91.406 C 157.577 91.406,156.817 92.812,156.250 94.531 C 155.683 96.250,154.961 97.656,154.647 97.656 C 154.333 97.656,153.861 98.511,153.599 99.555 C 153.337 100.599,152.684 101.933,152.147 102.520 C 151.611 103.107,150.619 104.626,149.943 105.895 C 148.335 108.918,146.634 111.827,145.878 112.851 C 145.544 113.302,144.151 115.430,142.782 117.578 C 141.412 119.727,140.085 121.660,139.831 121.875 C 139.578 122.090,138.334 123.652,137.068 125.347 C 134.011 129.438,124.987 138.180,123.252 138.731 C 122.495 138.971,121.875 139.514,121.875 139.937 C 121.875 140.360,120.820 141.074,119.531 141.523 C 118.242 141.973,117.188 142.612,117.188 142.944 C 117.188 143.275,115.518 143.999,113.477 144.551 C 111.436 145.103,109.398 145.836,108.948 146.179 C 108.499 146.522,88.108 146.906,63.636 147.034 L 19.141 147.266 15.271 149.219 C 11.460 151.142,3.906 157.968,3.906 159.489 C 3.906 159.917,3.404 160.770,2.791 161.383 C 0.797 163.377,0.702 169.335,0.938 276.953 L 1.172 383.203 3.054 386.231 C 5.309 389.858,11.237 396.094,12.430 396.094 C 12.898 396.094,13.281 396.386,13.281 396.744 C 13.281 399.577,14.244 399.595,175.391 399.713 C 350.776 399.842,346.608 399.978,352.985 393.945 C 353.553 393.408,354.322 392.969,354.694 392.969 C 355.699 392.969,363.221 385.013,363.729 383.413 C 363.970 382.653,364.468 382.031,364.836 382.031 C 365.203 382.031,365.928 380.713,366.447 379.102 C 366.966 377.490,367.693 375.789,368.061 375.322 C 368.430 374.854,369.119 371.690,369.592 368.291 C 370.065 364.891,370.730 361.568,371.068 360.906 C 371.407 360.244,371.941 357.080,372.257 353.875 C 372.572 350.669,373.099 347.695,373.427 347.266 C 373.756 346.836,374.477 342.354,375.030 337.305 C 375.583 332.256,376.281 328.125,376.582 328.125 C 376.883 328.125,377.577 323.730,378.125 318.359 C 378.673 312.988,379.367 308.594,379.668 308.594 C 379.969 308.594,380.667 304.463,381.220 299.414 C 381.773 294.365,382.494 289.883,382.823 289.453 C 383.151 289.023,383.674 286.035,383.984 282.813 C 384.295 279.590,384.822 276.602,385.155 276.172 C 385.489 275.742,386.203 271.523,386.741 266.797 C 387.280 262.070,387.976 257.852,388.287 257.422 C 388.599 256.992,389.299 252.598,389.844 247.656 C 390.388 242.715,391.091 238.320,391.406 237.891 C 391.721 237.461,392.424 233.066,392.969 228.125 C 393.513 223.184,394.224 218.789,394.549 218.359 C 394.873 217.930,395.393 214.941,395.703 211.719 C 396.013 208.496,396.557 205.499,396.912 205.058 C 399.498 201.844,399.466 172.088,396.876 171.224 C 396.446 171.081,396.094 170.333,396.094 169.562 C 396.094 168.791,395.580 167.734,394.952 167.213 C 394.324 166.692,393.575 165.506,393.287 164.578 C 392.619 162.427,384.719 154.655,381.641 153.121 C 380.352 152.479,378.832 151.514,378.265 150.977 C 377.697 150.439,376.624 150.000,375.882 150.000 C 375.139 150.000,374.164 149.632,373.714 149.183 C 371.909 147.378,356.331 146.902,298.633 146.889 C 258.929 146.880,238.281 146.608,238.281 146.094 C 238.281 145.664,237.754 145.313,237.109 145.313 C 236.465 145.313,235.938 144.961,235.938 144.531 C 235.938 144.102,236.289 143.750,236.719 143.750 C 237.148 143.750,237.500 143.349,237.500 142.859 C 237.500 142.369,238.241 140.347,239.147 138.367 C 242.487 131.062,242.907 130.007,243.846 126.563 C 244.373 124.629,245.056 122.695,245.362 122.266 C 245.669 121.836,246.366 119.463,246.912 116.992 C 247.458 114.521,248.161 112.500,248.473 112.500 C 248.786 112.500,249.290 110.830,249.594 108.789 C 249.898 106.748,250.425 104.727,250.765 104.297 C 251.105 103.867,251.796 100.879,252.300 97.656 C 252.803 94.434,253.530 91.094,253.913 90.234 C 254.763 88.332,256.250 78.458,256.250 74.720 C 256.250 73.227,256.689 71.859,257.227 71.680 C 258.523 71.247,258.646 30.504,257.356 28.832 C 256.890 28.228,256.073 25.713,255.542 23.242 C 255.010 20.771,254.249 18.750,253.850 18.750 C 253.451 18.750,253.123 18.311,253.121 17.773 C 253.115 16.264,248.642 11.773,240.956 5.559 C 240.493 5.185,239.279 4.614,238.258 4.289 C 237.237 3.965,235.958 3.258,235.418 2.717 C 232.855 0.154,218.583 -0.655,210.352 1.295 M222.656 26.510 C 222.656 26.911,223.446 27.489,224.410 27.795 C 225.375 28.101,227.397 29.585,228.903 31.093 L 231.641 33.834 231.623 50.035 C 231.611 60.675,231.295 66.869,230.702 68.079 C 230.205 69.093,229.387 73.438,228.883 77.734 C 228.380 82.031,227.740 85.898,227.461 86.328 C 227.182 86.758,226.539 89.043,226.032 91.406 C 224.299 99.494,222.644 105.859,221.960 107.070 C 221.584 107.736,220.827 110.285,220.279 112.734 C 219.731 115.184,219.028 117.188,218.717 117.188 C 218.406 117.188,217.972 117.979,217.754 118.945 C 217.173 121.515,213.770 129.253,213.086 129.557 C 212.764 129.701,212.500 130.144,212.500 130.542 C 212.500 130.941,211.709 132.933,210.742 134.969 C 208.817 139.023,208.223 151.915,209.912 152.988 C 210.368 153.278,210.994 154.682,211.304 156.107 C 211.613 157.533,212.360 158.889,212.964 159.121 C 213.568 159.353,214.063 159.962,214.063 160.475 C 214.063 161.780,220.337 167.623,222.463 168.298 C 223.429 168.604,224.219 169.137,224.219 169.482 C 224.219 169.827,225.889 170.569,227.930 171.130 C 229.971 171.691,231.891 172.528,232.198 172.989 C 232.585 173.573,252.902 173.900,298.987 174.065 C 355.805 174.267,365.308 174.462,365.851 175.432 C 366.199 176.054,366.928 176.563,367.470 176.562 C 370.897 176.562,373.074 183.530,371.864 190.625 C 371.388 193.418,370.428 199.746,369.732 204.688 C 369.035 209.629,368.230 213.848,367.942 214.063 C 367.654 214.277,366.968 218.496,366.417 223.438 C 365.867 228.379,365.156 232.773,364.836 233.203 C 364.517 233.633,363.804 238.115,363.251 243.164 C 362.699 248.213,361.993 252.344,361.684 252.344 C 361.374 252.344,360.869 255.068,360.561 258.398 C 360.252 261.729,359.727 264.805,359.394 265.234 C 359.060 265.664,358.335 270.146,357.783 275.195 C 357.230 280.244,356.540 284.375,356.250 284.375 C 355.960 284.375,355.270 288.506,354.717 293.555 C 354.165 298.604,353.448 303.086,353.125 303.516 C 352.802 303.945,352.085 308.428,351.533 313.477 C 350.980 318.525,350.275 322.656,349.965 322.656 C 349.656 322.656,349.150 325.381,348.842 328.711 C 348.534 332.041,348.009 335.117,347.675 335.547 C 347.342 335.977,346.617 340.459,346.064 345.508 C 345.511 350.557,344.810 354.688,344.505 354.688 C 344.201 354.687,343.710 357.141,343.415 360.140 C 342.934 365.020,342.561 365.942,339.858 368.929 L 336.838 372.266 303.004 372.485 C 282.531 372.618,268.871 373.004,268.413 373.462 C 267.365 374.510,206.250 374.486,206.250 373.438 C 206.250 372.926,190.494 372.656,160.544 372.656 L 114.838 372.656 115.036 272.497 L 115.234 172.337 119.922 171.205 C 122.500 170.583,124.727 169.776,124.870 169.412 C 125.013 169.048,125.579 168.750,126.127 168.750 C 127.216 168.750,135.461 164.501,137.233 163.027 C 139.774 160.912,140.378 160.441,143.359 158.244 C 148.538 154.427,160.156 141.843,160.156 140.051 C 160.156 139.507,160.460 139.063,160.831 139.063 C 161.202 139.063,162.520 137.568,163.759 135.742 C 164.998 133.916,166.211 132.246,166.456 132.031 C 166.700 131.816,168.090 129.531,169.545 126.953 C 170.999 124.375,172.646 121.801,173.204 121.233 C 173.762 120.665,174.219 119.728,174.219 119.150 C 174.219 118.572,174.483 117.982,174.805 117.839 C 175.579 117.495,185.938 96.681,185.938 95.470 C 185.938 94.954,186.254 94.531,186.641 94.531 C 187.028 94.531,187.766 92.773,188.281 90.625 C 188.797 88.477,189.493 86.719,189.829 86.719 C 190.165 86.719,190.838 85.137,191.325 83.203 C 191.812 81.270,192.556 79.688,192.980 79.688 C 193.403 79.688,193.750 79.141,193.750 78.473 C 193.750 77.805,194.462 75.695,195.332 73.785 C 196.202 71.875,197.125 69.258,197.383 67.969 C 197.641 66.680,198.103 65.625,198.410 65.625 C 198.718 65.625,199.433 63.691,200.000 61.328 C 200.567 58.965,201.298 57.031,201.625 57.031 C 201.952 57.031,202.463 55.889,202.761 54.492 C 203.058 53.096,203.965 50.478,204.776 48.676 C 205.587 46.873,206.250 44.852,206.250 44.183 C 206.250 43.515,206.574 42.969,206.969 42.969 C 207.365 42.969,207.928 41.877,208.221 40.543 C 208.845 37.701,212.472 30.469,213.273 30.469 C 213.576 30.469,214.634 29.766,215.625 28.906 C 216.616 28.047,218.076 27.344,218.870 27.344 C 219.663 27.344,220.313 26.992,220.313 26.563 C 220.313 26.133,220.840 25.781,221.484 25.781 C 222.129 25.781,222.656 26.109,222.656 26.510 M88.281 273.438 L 88.281 372.656 57.813 372.656 L 27.344 372.656 27.344 273.438 L 27.344 174.219 57.813 174.219 L 88.281 174.219 88.281 273.438 " stroke="none" fill="#000000" fill-rule="evenodd"></path></g></svg>